<svg width="20" height="20" viewBox="0 0 20 20" xmlns="http://www.w3.org/2000/svg">
<path d="M9.61711 12.8139L6.16602 9.05566C5.94466 8.81416 5.94466 8.42262 6.16602 8.18112C6.38737 7.93963 6.74626 7.93963 6.96761 8.18112L10.0156 11.515L13.0682 8.18112C13.2925 7.96665 13.6312 7.98079 13.8398 8.21334C14.0484 8.44589 14.054 8.81573 13.8525 9.05566L10.4015 12.8208C10.1822 13.0597 9.82696 13.0597 9.6077 12.8208L9.61711 12.8139Z"/>
<path fill-rule="evenodd" clip-rule="evenodd" d="M10 19C14.9706 19 19 14.9706 19 10C19 5.02944 14.9706 1 10 1C5.02944 1 1 5.02944 1 10C1 14.9706 5.02944 19 10 19ZM10 20C15.5228 20 20 15.5228 20 10C20 4.47715 15.5228 0 10 0C4.47715 0 0 4.47715 0 10C0 15.5228 4.47715 20 10 20Z"/>
</svg>
